<?xml version="1.0" encoding="UTF-8" standalone="no"?>
<!-- Created with Inkscape (http://www.inkscape.org/) -->

<svg
   width="512"
   height="512"
   viewBox="0 0 512 512"
   version="1.1"
   id="SVGRoot"
   sodipodi:docname="logo.svg"
   inkscape:version="1.1 (c68e22c387, 2021-05-23)"
   inkscape:export-filename="/home/nick/Documents/portfolio/am-frontend/public/favicon.png"
   inkscape:export-xdpi="96"
   inkscape:export-ydpi="96"
   xmlns:inkscape="http://www.inkscape.org/namespaces/inkscape"
   xmlns:sodipodi="http://sodipodi.sourceforge.net/DTD/sodipodi-0.dtd"
   xmlns="http://www.w3.org/2000/svg"
   xmlns:svg="http://www.w3.org/2000/svg">
  <sodipodi:namedview
     id="namedview27309"
     pagecolor="#ffffff"
     bordercolor="#666666"
     borderopacity="1.0"
     inkscape:pageshadow="2"
     inkscape:pageopacity="0.0"
     inkscape:pagecheckerboard="0"
     inkscape:document-units="px"
     showgrid="true"
     inkscape:zoom="0.67081229"
     inkscape:cx="242.98899"
     inkscape:cy="151.30909"
     inkscape:window-width="1598"
     inkscape:window-height="1010"
     inkscape:window-x="376"
     inkscape:window-y="292"
     inkscape:window-maximized="0"
     inkscape:current-layer="layer1"
     inkscape:snap-page="false"
     showguides="true"
     inkscape:guide-bbox="true"
     width="1e-05px"
     inkscape:snap-global="true">
    <inkscape:grid
       type="xygrid"
       id="grid27315" />
    <sodipodi:guide
       position="16,-3"
       orientation="1,0"
       id="guide27417" />
    <sodipodi:guide
       position="360,272"
       orientation="0,-1"
       id="guide27574" />
  </sodipodi:namedview>
  <defs
     id="defs27304" />
  <g
     inkscape:label="Layer 1"
     inkscape:groupmode="layer"
     id="layer1">
    <g
       id="g31728"
       transform="matrix(16.078704,0,0,16.078704,-1.2583395,-2.5652225)">
      <path
         id="path1208"
         style="fill:#000000;fill-opacity:1;stroke:#000000;stroke-width:0.0613071px;stroke-linecap:butt;stroke-linejoin:miter;stroke-opacity:1"
         d="m 14.822793,21.063312 v 1.735486 h -3.39056 v 1.568462 c 0,0 0.167721,6.478547 4.567767,6.478547 4.400052,0 4.743062,-6.478547 4.743062,-6.478547 v -1.568462 h -3.565969 v -1.735486 h -0.475225 v 3.322211 L 16,27.515324 15.298018,24.385523 v -3.322211 z" />
      <path
         id="path5012"
         style="fill:#000000;fill-rule:evenodd;stroke-width:0.0556801"
         d="M 16,3.57452 A 4.5859672,4.5859663 0 0 0 11.413968,8.1605529 4.5859672,4.5859663 0 0 0 16,12.746471 4.5859672,4.5859663 0 0 0 20.585917,8.1605529 4.5859672,4.5859663 0 0 0 16,3.57452 Z m 0,0.8329365 a 3.7530413,3.7530405 0 0 1 3.712431,3.2105569 H 12.289522 A 3.7530413,3.7530405 0 0 1 16,4.4074565 Z m -3.710478,4.2955208 h 7.420841 A 3.7530413,3.7530405 0 0 1 16,11.913534 3.7530413,3.7530405 0 0 1 12.289522,8.7029773 Z" />
      <path
         id="path12139"
         style="fill:none;fill-rule:evenodd;stroke:#000000;stroke-width:0.389761;stroke-linecap:round;stroke-linejoin:miter;stroke-miterlimit:4;stroke-dasharray:none;stroke-opacity:1;paint-order:fill markers stroke"
         d="M 16,1.4808657 A 1.1052162,0.71979812 0 0 0 14.894702,2.2006528 1.1052162,0.71979812 0 0 0 16,2.9204392 1.1052162,0.71979812 0 0 0 17.105183,2.2006528 1.1052162,0.71979812 0 0 0 16,1.4808657 Z M 16,4.231244 A 2.3058864,3.9447988 0 0 0 13.694061,8.17606 2.3058864,3.9447988 0 0 0 16,12.120764 2.3058864,3.9447988 0 0 0 18.305823,8.17606 2.3058864,3.9447988 0 0 0 16,4.231244 Z" />
      <path
         style="fill:none;stroke:#000000;stroke-width:0.405751;stroke-linecap:butt;stroke-linejoin:miter;stroke-miterlimit:4;stroke-dasharray:none;stroke-opacity:1"
         d="m 16.003845,8.0709708 -0.0078,-3.8012106"
         id="path14050" />
      <path
         id="path7967"
         style="fill:#000000;stroke:#000000;stroke-width:0.0588143px;stroke-linecap:butt;stroke-linejoin:miter;stroke-opacity:1"
         d="m 15.43483,2.814413 v 11.438601 l -5.133856,0.01687 1.112994,1.084967 h 4.020862 v 9.030662 L 16,27 16.565055,24.385513 v -9.030655 h 4.020862 l 1.112994,-1.084967 -5.133856,-0.01687 V 2.814415 Z" />
    </g>
  </g>
</svg>
